<svg width="37" height="22" viewBox="0 0 37 22" fill="none" xmlns="http://www.w3.org/2000/svg">
    <rect x="0.5" y="0.5" width="28.3448" height="16.875" fill="#FFCB12" stroke="#DF9300"/>
    <path d="M9.70693 17.875C9.70693 19.9129 8.18254 21.5 6.37934 21.5C4.57615 21.5 3.05176 19.9129 3.05176 17.875C3.05176 15.8371 4.57615 14.25 6.37934 14.25C8.18254 14.25 9.70693 15.8371 9.70693 17.875Z" fill="#FFCB12" stroke="#DF9300"/>
    <rect x="28.5688" y="10.125" width="7.93103" height="7.25" fill="#FFCB12" stroke="#DF9300"/>
    <path d="M35.9371 9.68049L36.263 10.5H28.5688V2.55418L35.9371 9.68049Z" fill="#FFCB12" stroke="#DF9300"/>
    <path d="M31.3966 18.5625C31.3966 20.2207 30.1579 21.5 28.707 21.5C27.2561 21.5 26.0173 20.2207 26.0173 18.5625C26.0173 16.9043 27.2561 15.625 28.707 15.625C30.1579 15.625 31.3966 16.9043 31.3966 18.5625Z" fill="#FFCB12" stroke="#DF9300"/>
</svg>
